<svg xmlns="http://www.w3.org/2000/svg" width="11.688" height="20" viewBox="0 0 11.688 20">
  <defs>
    <style>
      .cls-1 {
        fill: #303030;
        fill-rule: evenodd;
      }
    </style>
  </defs>
  <path id="fa-angle-left" class="cls-1" d="M11.831,1.736a0.654,0.654,0,0,0-.2-0.462l-1-1a0.633,0.633,0,0,0-.922,0L0.366,9.612a0.632,0.632,0,0,0,0,.923l9.341,9.339a0.629,0.629,0,0,0,.922,0l1-1a0.631,0.631,0,0,0,0-.922L3.753,10.074,11.631,2.2A0.694,0.694,0,0,0,11.831,1.736Z" transform="translate(-0.156 -0.063)"/>
</svg>
